<svg width="20" height="20" viewBox="0 0 20 20" fill="none" xmlns="http://www.w3.org/2000/svg">
<g clip-path="url(#clip0_23_1934)">
<path d="M9.325 1.13325L3.49167 3.72492C2.89167 3.99158 2.5 4.59159 2.5 5.24992V9.16658C2.5 13.7916 5.7 18.1166 10 19.1666C14.3 18.1166 17.5 13.7916 17.5 9.16658V5.24992C17.5 4.59159 17.1083 3.99158 16.5083 3.72492L10.675 1.13325C10.25 0.941585 9.75 0.941585 9.325 1.13325ZM7.74167 13.5749L5.58333 11.4166C5.25833 11.0916 5.25833 10.5666 5.58333 10.2416C5.90833 9.91658 6.43333 9.91658 6.75833 10.2416L8.33333 11.8083L13.2333 6.90825C13.5583 6.58325 14.0833 6.58325 14.4083 6.90825C14.7333 7.23325 14.7333 7.75825 14.4083 8.08325L8.91667 13.5749C8.6 13.8999 8.06667 13.8999 7.74167 13.5749Z" fill="#323232"/>
</g>
<defs>
<clipPath id="clip0_23_1934">
<rect width="20" height="20" fill="white"/>
</clipPath>
</defs>
</svg>
