<svg width="36" height="36" viewBox="0 0 36 36" fill="none" xmlns="http://www.w3.org/2000/svg">
<path d="M16.5001 12L18.7501 9.75V15.75" stroke="#037783" stroke-width="2.25" stroke-linecap="round" stroke-linejoin="round"/>
<path d="M28.4999 7.5L29.9228 7.97431C31.408 8.46934 32.1505 8.71686 32.5751 9.30612C32.9999 9.89538 32.9999 10.6781 32.9998 12.2435V12.3523C32.9998 13.6434 32.9998 14.289 32.689 14.8171C32.3782 15.3453 31.8139 15.6588 30.6853 16.2858L26.2499 18.75" stroke="#037783" stroke-width="2.25"/>
<path d="M7.49997 7.5L6.07704 7.97431C4.59195 8.46934 3.84941 8.71686 3.42471 9.30612C3 9.89538 3.00002 10.6781 3.00006 12.2435V12.3523C3.00011 13.6434 3.00012 14.289 3.31091 14.8171C3.62168 15.3453 4.18601 15.6588 5.31464 16.2858L9.74997 18.75" stroke="#037783" stroke-width="2.25"/>
<path d="M18 24V28.5" stroke="#037783" stroke-width="2.25" stroke-linecap="round"/>
<path d="M23.2499 33H12.7499L13.2588 30.4558C13.399 29.7547 14.0146 29.25 14.7296 29.25H21.2702C21.9853 29.25 22.6009 29.7547 22.7411 30.4558L23.2499 33Z" stroke="#037783" stroke-width="2.25" stroke-linecap="round" stroke-linejoin="round"/>
<path d="M27 33H9" stroke="#037783" stroke-width="2.25" stroke-linecap="round"/>
<path d="M25.5001 3.68396C26.6123 3.8962 27.2717 4.12948 27.8414 4.83124C28.5551 5.71009 28.5173 6.65997 28.4419 8.5597C28.1708 15.3892 26.6402 24 18.0004 24C9.36037 24 7.8298 15.3892 7.55866 8.5597C7.48324 6.65997 7.44553 5.71009 8.15911 4.83124C8.87268 3.95241 9.72673 3.8083 11.4348 3.52011C13.1209 3.23563 15.325 3 18.0004 3C19.0777 3 20.0786 3.03822 21.0001 3.10243" stroke="#037783" stroke-width="2.25" stroke-linecap="round"/>
</svg>
