<svg width="36" height="36" viewBox="0 0 36 36" fill="none" xmlns="http://www.w3.org/2000/svg">
<path d="M5.59507 33.6825L6.04906 32.7915H6.04906L5.59507 33.6825ZM2.31745 30.4049L3.20846 29.9509H3.20846L2.31745 30.4049ZM33.6825 30.4049L32.7915 29.9509L33.6825 30.4049ZM30.4049 33.6825L29.9509 32.7915L30.4049 33.6825ZM30.4049 2.31745L29.9509 3.20846V3.20846L30.4049 2.31745ZM33.6825 5.59507L32.7915 6.04906V6.04906L33.6825 5.59507ZM5.59507 2.31745L6.04906 3.20846L5.59507 2.31745ZM2.31745 5.59507L3.20846 6.04906L2.31745 5.59507ZM9.70711 8.29289C9.31658 7.90237 8.68342 7.90237 8.29289 8.29289C7.90237 8.68342 7.90237 9.31658 8.29289 9.70711L9.70711 8.29289ZM12.9697 14.0303L13.6768 14.7374L12.9697 14.0303ZM8.29289 17.2929C7.90237 17.6834 7.90237 18.3166 8.29289 18.7071C8.68342 19.0976 9.31658 19.0976 9.70711 18.7071L8.29289 17.2929ZM16.5 17C15.9477 17 15.5 17.4477 15.5 18C15.5 18.5523 15.9477 19 16.5 19V17ZM21 19C21.5523 19 22 18.5523 22 18C22 17.4477 21.5523 17 21 17V19ZM13.5 2.5H22.5V0.5H13.5V2.5ZM33.5 13.5V22.5H35.5V13.5H33.5ZM22.5 33.5H13.5V35.5H22.5V33.5ZM2.5 22.5V13.5H0.5V22.5H2.5ZM13.5 33.5C11.3833 33.5 9.85592 33.4992 8.65545 33.4011C7.46665 33.304 6.68676 33.1165 6.04906 32.7915L5.14108 34.5736C6.10772 35.0661 7.1801 35.2873 8.49258 35.3945C9.79339 35.5008 11.4163 35.5 13.5 35.5V33.5ZM0.5 22.5C0.5 24.5837 0.499222 26.2066 0.605502 27.5074C0.712736 28.8199 0.933918 29.8923 1.42644 30.8589L3.20846 29.9509C2.88353 29.3132 2.69599 28.5334 2.59886 27.3446C2.50078 26.1441 2.5 24.6167 2.5 22.5H0.5ZM6.04906 32.7915C4.82601 32.1684 3.83163 31.174 3.20846 29.9509L1.42644 30.8589C2.24137 32.4583 3.5417 33.7586 5.14108 34.5736L6.04906 32.7915ZM33.5 22.5C33.5 24.6167 33.4992 26.1441 33.4011 27.3446C33.304 28.5334 33.1165 29.3132 32.7915 29.9509L34.5736 30.8589C35.0661 29.8923 35.2873 28.8199 35.3945 27.5074C35.5008 26.2066 35.5 24.5837 35.5 22.5H33.5ZM22.5 35.5C24.5837 35.5 26.2066 35.5008 27.5074 35.3945C28.8199 35.2873 29.8923 35.0661 30.8589 34.5736L29.9509 32.7915C29.3132 33.1165 28.5334 33.304 27.3446 33.4011C26.1441 33.4992 24.6167 33.5 22.5 33.5V35.5ZM32.7915 29.9509C32.1684 31.174 31.174 32.1684 29.9509 32.7915L30.8589 34.5736C32.4583 33.7586 33.7586 32.4583 34.5736 30.8589L32.7915 29.9509ZM22.5 2.5C24.6167 2.5 26.1441 2.50078 27.3446 2.59886C28.5334 2.69599 29.3132 2.88353 29.9509 3.20846L30.8589 1.42644C29.8923 0.933918 28.8199 0.712736 27.5074 0.605502C26.2066 0.499222 24.5837 0.5 22.5 0.5V2.5ZM35.5 13.5C35.5 11.4163 35.5008 9.79339 35.3945 8.49258C35.2873 7.1801 35.0661 6.10772 34.5736 5.14108L32.7915 6.04906C33.1165 6.68676 33.304 7.46665 33.4011 8.65545C33.4992 9.85592 33.5 11.3833 33.5 13.5H35.5ZM29.9509 3.20846C31.174 3.83163 32.1684 4.82601 32.7915 6.04906L34.5736 5.14108C33.7586 3.5417 32.4583 2.24137 30.8589 1.42644L29.9509 3.20846ZM13.5 0.5C11.4163 0.5 9.79339 0.499222 8.49258 0.605502C7.1801 0.712736 6.10772 0.933918 5.14108 1.42644L6.04906 3.20846C6.68676 2.88353 7.46665 2.69599 8.65545 2.59886C9.85592 2.50078 11.3833 2.5 13.5 2.5V0.5ZM2.5 13.5C2.5 11.3833 2.50078 9.85592 2.59886 8.65545C2.69599 7.46665 2.88353 6.68676 3.20846 6.04906L1.42644 5.14108C0.933918 6.10772 0.712736 7.1801 0.605502 8.49258C0.499222 9.79339 0.5 11.4163 0.5 13.5H2.5ZM5.14108 1.42644C3.5417 2.24137 2.24137 3.5417 1.42644 5.14108L3.20846 6.04906C3.83163 4.82601 4.82601 3.83163 6.04906 3.20846L5.14108 1.42644ZM8.29289 9.70711L12.2626 13.6768L13.6768 12.2626L9.70711 8.29289L8.29289 9.70711ZM12.2626 13.3232L8.29289 17.2929L9.70711 18.7071L13.6768 14.7374L12.2626 13.3232ZM12.2626 13.6768C12.1649 13.5791 12.1649 13.4209 12.2626 13.3232L13.6768 14.7374C14.3602 14.054 14.3602 12.946 13.6768 12.2626L12.2626 13.6768ZM16.5 19H21V17H16.5V19Z" fill="#037783"/>
</svg>
