<svg width="36" height="36" viewBox="0 0 36 36" fill="none" xmlns="http://www.w3.org/2000/svg">
<path d="M4.75735 31.2426C6.51472 33 9.34314 33 15 33H21C26.6568 33 29.4853 33 31.2426 31.2426C33 29.4853 33 26.6568 33 21C33 19.2453 33 17.7628 32.9475 16.5M31.2426 10.7574C29.4853 9 26.6568 9 21 9H15C9.34314 9 6.51472 9 4.75735 10.7574C3 12.5147 3 15.3432 3 21C3 22.7547 3 24.2371 3.05244 25.5" stroke="#037783" stroke-width="2.25" stroke-linecap="round"/>
<path d="M18 3C20.8284 3 22.2426 3 23.1213 3.87868C24 4.75735 24 6.17157 24 9M12.8787 3.87868C12 4.75735 12 6.17157 12 9" stroke="#037783" stroke-width="2.25" stroke-linecap="round"/>
<path d="M18 25.9999C19.6569 25.9999 21 24.8806 21 23.5C21 22.1193 19.6569 21 18 21C16.3431 21 15 19.8807 15 18.4999C15 17.1193 16.3431 16.0001 18 16.0001M18 25.9999C16.3431 25.9999 15 24.8806 15 23.5M18 25.9999V27M18 16.0001V15M18 16.0001C19.6569 16.0001 21 17.1193 21 18.4999" stroke="#037783" stroke-width="2.25" stroke-linecap="round"/>
</svg>
