<svg width="36" height="36" viewBox="0 0 36 36" fill="none" xmlns="http://www.w3.org/2000/svg">
<g clip-path="url(#clip0_1_15903)">
<path d="M5.59507 33.6825L6.04906 32.7915L5.59507 33.6825ZM2.31745 30.4049L3.20846 29.9509L2.31745 30.4049ZM27.6825 30.4049L26.7915 29.9509L27.6825 30.4049ZM24.4049 33.6825L23.9509 32.7915L24.4049 33.6825ZM24.4049 8.31745L23.9509 9.20846L24.4049 8.31745ZM27.6825 11.5951L26.7915 12.0491L27.6825 11.5951ZM5.59507 8.31745L6.04906 9.20846L5.59507 8.31745ZM2.31745 11.5951L3.20846 12.0491L2.31745 11.5951ZM28.5 27.5C27.9477 27.5 27.5 27.9477 27.5 28.5C27.5 29.0523 27.9477 29.5 28.5 29.5V27.5ZM6.5 7.5C6.5 8.05228 6.94772 8.5 7.5 8.5C8.05228 8.5 8.5 8.05228 8.5 7.5H6.5ZM8.3085 24.7776C7.90954 25.1595 7.89572 25.7925 8.27762 26.1915C8.65953 26.5905 9.29254 26.6043 9.6915 26.2224L8.3085 24.7776ZM20.3085 26.2224C20.7075 26.6043 21.3405 26.5905 21.7224 26.1915C22.1043 25.7925 22.0905 25.1595 21.6915 24.7776L20.3085 26.2224ZM13.5 8.5H16.5V6.5H13.5V8.5ZM27.5 19.5V22.5H29.5V19.5H27.5ZM16.5 33.5H13.5V35.5H16.5V33.5ZM2.5 22.5V19.5H0.5V22.5H2.5ZM13.5 33.5C11.3833 33.5 9.85592 33.4992 8.65545 33.4011C7.46665 33.304 6.68676 33.1165 6.04906 32.7915L5.14108 34.5736C6.10772 35.0661 7.1801 35.2873 8.49258 35.3945C9.79339 35.5008 11.4163 35.5 13.5 35.5V33.5ZM0.5 22.5C0.5 24.5837 0.499222 26.2066 0.605502 27.5074C0.712736 28.8199 0.933918 29.8923 1.42644 30.8589L3.20846 29.9509C2.88353 29.3132 2.69599 28.5334 2.59886 27.3446C2.50078 26.1441 2.5 24.6167 2.5 22.5H0.5ZM6.04906 32.7915C4.82601 32.1684 3.83163 31.174 3.20846 29.9509L1.42644 30.8589C2.24137 32.4583 3.5417 33.7586 5.14108 34.5736L6.04906 32.7915ZM27.5 22.5C27.5 24.6167 27.4992 26.1441 27.4011 27.3446C27.304 28.5334 27.1165 29.3132 26.7915 29.9509L28.5736 30.8589C29.0661 29.8923 29.2873 28.8199 29.3945 27.5074C29.5008 26.2066 29.5 24.5837 29.5 22.5H27.5ZM16.5 35.5C18.5837 35.5 20.2066 35.5008 21.5074 35.3945C22.8199 35.2873 23.8923 35.0661 24.8589 34.5736L23.9509 32.7915C23.3132 33.1165 22.5334 33.304 21.3446 33.4011C20.1441 33.4992 18.6167 33.5 16.5 33.5V35.5ZM26.7915 29.9509C26.1684 31.174 25.174 32.1684 23.9509 32.7915L24.8589 34.5736C26.4583 33.7586 27.7586 32.4583 28.5736 30.8589L26.7915 29.9509ZM16.5 8.5C18.6167 8.5 20.1441 8.50078 21.3446 8.59886C22.5334 8.69599 23.3132 8.88353 23.9509 9.20846L24.8589 7.42645C23.8923 6.93392 22.8199 6.71274 21.5074 6.6055C20.2066 6.49922 18.5837 6.5 16.5 6.5V8.5ZM29.5 19.5C29.5 17.4163 29.5008 15.7934 29.3945 14.4926C29.2873 13.1801 29.0661 12.1077 28.5736 11.1411L26.7915 12.0491C27.1165 12.6868 27.304 13.4666 27.4011 14.6554C27.4992 15.8559 27.5 17.3833 27.5 19.5H29.5ZM23.9509 9.20846C25.174 9.83163 26.1684 10.826 26.7915 12.0491L28.5736 11.1411C27.7586 9.5417 26.4583 8.24137 24.8589 7.42645L23.9509 9.20846ZM13.5 6.5C11.4163 6.5 9.79339 6.49922 8.49258 6.6055C7.1801 6.71274 6.10772 6.93392 5.14108 7.42645L6.04906 9.20846C6.68676 8.88353 7.46665 8.69599 8.65545 8.59886C9.85592 8.50078 11.3833 8.5 13.5 8.5V6.5ZM2.5 19.5C2.5 17.3833 2.50078 15.8559 2.59886 14.6554C2.69599 13.4666 2.88353 12.6868 3.20846 12.0491L1.42644 11.1411C0.933918 12.1077 0.712736 13.1801 0.605502 14.4926C0.499222 15.7934 0.5 17.4163 0.5 19.5H2.5ZM5.14108 7.42645C3.5417 8.24137 2.24137 9.5417 1.42644 11.1411L3.20846 12.0491C3.83163 10.826 4.82601 9.83163 6.04906 9.20846L5.14108 7.42645ZM13.5 2.5H27V0.5H13.5V2.5ZM33.5 9V22.5H35.5V9H33.5ZM33.5 22.5C33.5 25.2614 31.2614 27.5 28.5 27.5V29.5C32.366 29.5 35.5 26.366 35.5 22.5H33.5ZM27 2.5C30.5898 2.5 33.5 5.41015 33.5 9H35.5C35.5 4.30558 31.6944 0.5 27 0.5V2.5ZM13.5 0.5C9.63401 0.5 6.5 3.63401 6.5 7.5H8.5C8.5 4.73858 10.7386 2.5 13.5 2.5V0.5ZM9.6915 26.2224C12.6185 23.4205 17.3815 23.4205 20.3085 26.2224L21.6915 24.7776C17.9911 21.2354 12.0089 21.2354 8.3085 24.7776L9.6915 26.2224ZM18.0245 18.8053C18.0245 20.314 16.734 21.6107 15.0492 21.6107V23.6107C17.7554 23.6107 20.0245 21.5 20.0245 18.8053H18.0245ZM15.0492 21.6107C13.3644 21.6107 12.074 20.314 12.074 18.8053H10.074C10.074 21.5 12.3431 23.6107 15.0492 23.6107V21.6107ZM12.074 18.8053C12.074 17.2967 13.3644 16 15.0492 16V14C12.3431 14 10.074 16.1107 10.074 18.8053H12.074ZM15.0492 16C16.734 16 18.0245 17.2967 18.0245 18.8053H20.0245C20.0245 16.1107 17.7554 14 15.0492 14V16Z" fill="#037783"/>
</g>
<defs>
<clipPath id="clip0_1_15903">
<rect width="36" height="36" fill="white"/>
</clipPath>
</defs>
</svg>
