<svg width="77" height="29" viewBox="0 0 77 29" fill="none" xmlns="http://www.w3.org/2000/svg">
<path fill-rule="evenodd" clip-rule="evenodd" d="M72.7627 12.8766C68.737 16.6323 60.9486 25.5661 60.1355 27.3547C59.678 28.3607 58.932 28.9689 58.5139 28.6624C57.5896 27.9847 58.8638 24.1494 60.9666 21.3315C62.3539 19.4421 62.3758 19.4582 59.7611 20.8203C53.6826 23.9279 41.2658 26.0033 38.7849 24.2962C38.0459 23.7917 28.8128 33.902 9.99484 25.9186C4.29189 23.4888 -1.20518 17.1856 0.231276 14.7361C0.478593 14.3212 0.904435 14.2236 1.24725 14.4377L4.47038 16.5771C21.7162 27.9539 33.8284 21.9665 33.8631 21.9547C33.7031 21.7256 28.3702 18.9337 29.6374 9.951C30.1997 6.00364 32.069 2.34385 35.0715 0.967925C44.6849 -3.4606 50.3967 8.17926 43.5595 18.1831C42.6313 19.5147 42.4865 19.4458 45.7333 19.4041C51.3158 19.3236 59.2525 16.6467 66.0501 12.5385C68.5708 10.9958 68.6022 11.056 64.7325 10.79C55.6282 10.2262 51.3392 7.26802 56.4626 5.09957C57.6242 4.60982 58.1253 4.6046 64.3452 5.25217C66.7241 5.50577 70.4052 5.67074 72.5141 5.61462C76.4796 5.54098 76.8824 5.68728 76.6882 7.14712C76.4202 8.96278 75.514 10.3105 72.7627 12.8766ZM43.8304 11.0039C44.2228 6.07492 39.3453 3.76588 34.088 6.35784C31.4421 7.65972 31.2675 11.5933 33.721 14.8452C35.1894 16.7788 38.8733 18.8089 39.7141 18.1212C41.7337 16.5836 43.6682 13.2324 43.8304 11.0039Z" fill="#786CFF"/>
</svg>
