<svg width="14" height="13" viewBox="0 0 14 13" fill="none" xmlns="http://www.w3.org/2000/svg">
<path d="M10.1499 0C8.93189 0 7.76291 0.566993 6.99991 1.46298C6.23692 0.566993 5.06794 0 3.84995 0C1.69398 0 0 1.69398 0 3.84995C0 6.49592 2.37997 8.6519 5.98493 11.9279L6.99991 12.8448L8.0149 11.9209C11.6199 8.6519 13.9998 6.49592 13.9998 3.84995C13.9998 1.69398 12.3059 0 10.1499 0ZM7.06991 10.8849L6.99991 10.9549L6.92992 10.8849C3.59796 7.8679 1.39998 5.87293 1.39998 3.84995C1.39998 2.44997 2.44997 1.39998 3.84995 1.39998C4.92794 1.39998 5.97793 2.09297 6.34892 3.05196H7.65791C8.0219 2.09297 9.07189 1.39998 10.1499 1.39998C11.5499 1.39998 12.5998 2.44997 12.5998 3.84995C12.5998 5.87293 10.4019 7.8679 7.06991 10.8849Z" fill="#037783"/>
</svg>
