<svg width="36" height="36" viewBox="0 0 36 36" fill="none" xmlns="http://www.w3.org/2000/svg">
<path d="M25.5001 13.5C25.5001 19.305 20.4601 24 14.2501 24L12.8551 25.68L12.0301 26.67C11.3251 27.51 9.97506 27.33 9.51006 26.325L7.50006 21.9C4.77006 19.98 3.00006 16.935 3.00006 13.5C3.00006 7.695 8.04006 3 14.2501 3C18.7801 3 22.6951 5.50502 24.4501 9.10502C25.1251 10.44 25.5001 11.925 25.5001 13.5Z" stroke="#037783" stroke-width="2.25" stroke-linecap="round" stroke-linejoin="round"/>
<path opacity="0.4" d="M33.0005 19.2897C33.0005 22.7247 31.2305 25.7697 28.5005 27.6897L26.4905 32.1147C26.0255 33.1197 24.6755 33.3147 23.9705 32.4597L21.7505 29.7897C18.1205 29.7897 14.8805 28.1847 12.8555 25.6797L14.2505 23.9997C20.4605 23.9997 25.5005 19.3047 25.5005 13.4998C25.5005 11.9248 25.1255 10.4398 24.4505 9.10477C29.3555 10.2298 33.0005 14.3697 33.0005 19.2897Z" stroke="#037783" stroke-width="2.25" stroke-linecap="round" stroke-linejoin="round"/>
<path opacity="0.4" d="M10.5 13.5H18" stroke="#037783" stroke-width="2.25" stroke-linecap="round" stroke-linejoin="round"/>
</svg>
