<svg width="16" height="16" viewBox="0 0 16 16" fill="none" xmlns="http://www.w3.org/2000/svg">
<path d="M7.55082 0.279234C7.73456 -0.0930589 8.26544 -0.0930583 8.44918 0.279235L10.5333 4.50205C10.6062 4.64989 10.7473 4.75236 10.9104 4.77606L15.5706 5.45322C15.9814 5.51292 16.1455 6.01782 15.8482 6.30761L12.476 9.59461C12.358 9.70968 12.3041 9.87548 12.332 10.038L13.128 14.6793C13.1982 15.0885 12.7687 15.4005 12.4013 15.2073L8.23309 13.016C8.08717 12.9393 7.91283 12.9393 7.76691 13.016L3.59874 15.2073C3.23127 15.4005 2.80178 15.0885 2.87196 14.6793L3.66801 10.038C3.69588 9.87548 3.64201 9.70968 3.52395 9.59461L0.151835 6.30761C-0.145459 6.01782 0.0185921 5.51292 0.429442 5.45322L5.08959 4.77606C5.25274 4.75236 5.39378 4.64989 5.46674 4.50205L7.55082 0.279234Z" fill="black"/>
</svg>
