<svg width="95" height="92" viewBox="0 0 95 92" fill="none" xmlns="http://www.w3.org/2000/svg">
<path fill-rule="evenodd" clip-rule="evenodd" d="M82.0953 46.3496C78.0945 50.0821 70.3542 58.9607 69.546 60.7382C69.0914 61.7381 68.35 62.3425 67.9345 62.0378C67.0159 61.3644 68.2823 57.5528 70.3721 54.7523C71.7507 52.8745 71.7725 52.8905 69.174 54.2442C63.133 57.3327 50.7929 59.3952 48.3273 57.6987C47.5929 57.1973 38.4168 67.2452 19.715 59.311C14.0473 56.8962 8.58418 50.6319 10.0118 48.1976C10.2576 47.7853 10.6808 47.6883 11.0215 47.9011L14.2247 50.0272C31.364 61.3338 43.4014 55.3834 43.4359 55.3716C43.2769 55.144 37.977 52.3693 39.2363 43.442C39.7951 39.5191 41.6529 35.8819 44.6368 34.5144C54.1909 30.1133 59.8674 41.6812 53.0725 51.6233C52.15 52.9467 52.0061 52.8782 55.2328 52.8368C60.7808 52.7568 68.6686 50.0964 75.4242 46.0136C77.9293 44.4803 77.9605 44.5402 74.1147 44.2758C65.0666 43.7155 60.8041 40.7756 65.8958 38.6206C67.0503 38.1338 67.5483 38.1287 73.7298 38.7722C76.094 39.0243 79.7523 39.1882 81.8482 39.1324C85.7892 39.0592 86.1896 39.2047 85.9965 40.6555C85.7302 42.4599 84.8296 43.7993 82.0953 46.3496ZM53.3417 44.4884C53.7316 39.5899 48.8842 37.2951 43.6595 39.8711C41.0298 41.1649 40.8564 45.0742 43.2947 48.3061C44.754 50.2277 48.4152 52.2452 49.2508 51.5618C51.2579 50.0337 53.1804 46.7032 53.3417 44.4884Z" fill="#786CFF"/>
</svg>
