<svg width="94" height="16" viewBox="0 0 94 16" fill="none" xmlns="http://www.w3.org/2000/svg">
<path d="M8.81249 0.134716C8.82535 0.0955596 8.85043 0.0614355 8.88413 0.037235C8.91783 0.0130344 8.95841 0 9.00006 0C9.04171 0 9.0823 0.0130344 9.11599 0.037235C9.14969 0.0614355 9.17477 0.0955596 9.18764 0.134716L11.059 5.82792C11.0719 5.86705 11.097 5.90113 11.1307 5.92529C11.1644 5.94945 11.205 5.96245 11.2466 5.96243H17.3028C17.3444 5.96243 17.385 5.97546 17.4187 5.99965C17.4524 6.02385 17.4775 6.05797 17.4903 6.09712C17.5032 6.13627 17.5032 6.17845 17.4904 6.2176C17.4775 6.25676 17.4524 6.29088 17.4187 6.31508L12.5192 9.83368C12.4855 9.85789 12.4604 9.89201 12.4476 9.93117C12.4347 9.97032 12.4347 10.0125 12.4476 10.0516L14.319 15.7448C14.3318 15.784 14.3318 15.8262 14.319 15.8653C14.3061 15.9044 14.281 15.9385 14.2473 15.9627C14.2137 15.9869 14.1731 16 14.1315 16C14.0898 16 14.0492 15.987 14.0155 15.9628L9.11599 12.4443C9.08229 12.4201 9.04171 12.407 9.00006 12.407C8.95841 12.407 8.91783 12.4201 8.88414 12.4443L3.98462 15.9628C3.95093 15.987 3.91035 16 3.86869 16C3.82704 16 3.78646 15.987 3.75276 15.9628C3.71907 15.9386 3.69399 15.9044 3.68112 15.8653C3.66825 15.8261 3.66825 15.784 3.68112 15.7448L5.55251 10.0516C5.56537 10.0124 5.56536 9.97025 5.55248 9.9311C5.5396 9.89194 5.5145 9.85783 5.48079 9.83364L0.581411 6.31517C0.547678 6.29098 0.522563 6.25685 0.509672 6.21768C0.496781 6.1785 0.496776 6.1363 0.509657 6.09712C0.522539 6.05795 0.547645 6.02381 0.581373 5.99961C0.615101 5.97541 0.655717 5.9624 0.697393 5.96243H6.75347C6.79512 5.96243 6.8357 5.9494 6.86939 5.9252C6.90308 5.901 6.92816 5.86688 6.94103 5.82772L8.81249 0.134716Z" fill="black"/>
<path d="M27.8125 0.134716C27.8254 0.0955596 27.8504 0.0614355 27.8841 0.037235C27.9178 0.0130344 27.9584 0 28.0001 0C28.0417 0 28.0823 0.0130344 28.116 0.037235C28.1497 0.0614355 28.1748 0.0955596 28.1876 0.134716L30.059 5.82792C30.0719 5.86705 30.097 5.90113 30.1307 5.92529C30.1644 5.94945 30.205 5.96245 30.2466 5.96243H36.3028C36.3444 5.96243 36.385 5.97546 36.4187 5.99965C36.4524 6.02385 36.4775 6.05797 36.4903 6.09712C36.5032 6.13627 36.5032 6.17845 36.4904 6.2176C36.4775 6.25676 36.4524 6.29088 36.4187 6.31508L31.5192 9.83368C31.4855 9.85789 31.4604 9.89201 31.4476 9.93117C31.4347 9.97032 31.4347 10.0125 31.4476 10.0516L33.319 15.7448C33.3318 15.784 33.3318 15.8262 33.319 15.8653C33.3061 15.9044 33.281 15.9385 33.2473 15.9627C33.2137 15.9869 33.1731 16 33.1315 16C33.0898 16 33.0492 15.987 33.0155 15.9628L28.116 12.4443C28.0823 12.4201 28.0417 12.407 28.0001 12.407C27.9584 12.407 27.9178 12.4201 27.8841 12.4443L22.9846 15.9628C22.9509 15.987 22.9103 16 22.8687 16C22.827 16 22.7865 15.987 22.7528 15.9628C22.7191 15.9386 22.694 15.9044 22.6811 15.8653C22.6682 15.8261 22.6682 15.784 22.6811 15.7448L24.5525 10.0516C24.5654 10.0124 24.5654 9.97025 24.5525 9.9311C24.5396 9.89194 24.5145 9.85783 24.4808 9.83364L19.5814 6.31517C19.5477 6.29098 19.5226 6.25685 19.5097 6.21768C19.4968 6.1785 19.4968 6.1363 19.5097 6.09712C19.5225 6.05795 19.5476 6.02381 19.5814 5.99961C19.6151 5.97541 19.6557 5.9624 19.6974 5.96243H25.7535C25.7951 5.96243 25.8357 5.9494 25.8694 5.9252C25.9031 5.901 25.9282 5.86688 25.941 5.82772L27.8125 0.134716Z" fill="black"/>
<path d="M46.8125 0.134716C46.8254 0.0955596 46.8504 0.0614355 46.8841 0.037235C46.9178 0.0130344 46.9584 0 47.0001 0C47.0417 0 47.0823 0.0130344 47.116 0.037235C47.1497 0.0614355 47.1748 0.0955596 47.1876 0.134716L49.059 5.82792C49.0719 5.86705 49.097 5.90113 49.1307 5.92529C49.1644 5.94945 49.205 5.96245 49.2466 5.96243H55.3028C55.3444 5.96243 55.385 5.97546 55.4187 5.99965C55.4524 6.02385 55.4775 6.05797 55.4903 6.09712C55.5032 6.13627 55.5032 6.17845 55.4904 6.2176C55.4775 6.25676 55.4524 6.29088 55.4187 6.31508L50.5192 9.83368C50.4855 9.85789 50.4604 9.89201 50.4476 9.93117C50.4347 9.97032 50.4347 10.0125 50.4476 10.0516L52.319 15.7448C52.3318 15.784 52.3318 15.8262 52.319 15.8653C52.3061 15.9044 52.281 15.9385 52.2473 15.9627C52.2137 15.9869 52.1731 16 52.1315 16C52.0898 16 52.0492 15.987 52.0155 15.9628L47.116 12.4443C47.0823 12.4201 47.0417 12.407 47.0001 12.407C46.9584 12.407 46.9178 12.4201 46.8841 12.4443L41.9846 15.9628C41.9509 15.987 41.9103 16 41.8687 16C41.827 16 41.7865 15.987 41.7528 15.9628C41.7191 15.9386 41.694 15.9044 41.6811 15.8653C41.6682 15.8261 41.6682 15.784 41.6811 15.7448L43.5525 10.0516C43.5654 10.0124 43.5654 9.97025 43.5525 9.9311C43.5396 9.89194 43.5145 9.85783 43.4808 9.83364L38.5814 6.31517C38.5477 6.29098 38.5226 6.25685 38.5097 6.21768C38.4968 6.1785 38.4968 6.1363 38.5097 6.09712C38.5225 6.05795 38.5476 6.02381 38.5814 5.99961C38.6151 5.97541 38.6557 5.9624 38.6974 5.96243H44.7535C44.7951 5.96243 44.8357 5.9494 44.8694 5.9252C44.9031 5.901 44.9282 5.86688 44.941 5.82772L46.8125 0.134716Z" fill="black"/>
<path d="M65.8125 0.134716C65.8254 0.0955596 65.8504 0.0614355 65.8841 0.037235C65.9178 0.0130344 65.9584 0 66.0001 0C66.0417 0 66.0823 0.0130344 66.116 0.037235C66.1497 0.0614355 66.1748 0.0955596 66.1876 0.134716L68.059 5.82792C68.0719 5.86705 68.097 5.90113 68.1307 5.92529C68.1644 5.94945 68.205 5.96245 68.2466 5.96243H74.3028C74.3444 5.96243 74.385 5.97546 74.4187 5.99965C74.4524 6.02385 74.4775 6.05797 74.4903 6.09712C74.5032 6.13627 74.5032 6.17845 74.4904 6.2176C74.4775 6.25676 74.4524 6.29088 74.4187 6.31508L69.5192 9.83368C69.4855 9.85789 69.4604 9.89201 69.4476 9.93117C69.4347 9.97032 69.4347 10.0125 69.4476 10.0516L71.319 15.7448C71.3318 15.784 71.3318 15.8262 71.319 15.8653C71.3061 15.9044 71.281 15.9385 71.2473 15.9627C71.2137 15.9869 71.1731 16 71.1315 16C71.0898 16 71.0492 15.987 71.0155 15.9628L66.116 12.4443C66.0823 12.4201 66.0417 12.407 66.0001 12.407C65.9584 12.407 65.9178 12.4201 65.8841 12.4443L60.9846 15.9628C60.9509 15.987 60.9103 16 60.8687 16C60.827 16 60.7865 15.987 60.7528 15.9628C60.7191 15.9386 60.694 15.9044 60.6811 15.8653C60.6682 15.8261 60.6682 15.784 60.6811 15.7448L62.5525 10.0516C62.5654 10.0124 62.5654 9.97025 62.5525 9.9311C62.5396 9.89194 62.5145 9.85783 62.4808 9.83364L57.5814 6.31517C57.5477 6.29098 57.5226 6.25685 57.5097 6.21768C57.4968 6.1785 57.4968 6.1363 57.5097 6.09712C57.5225 6.05795 57.5476 6.02381 57.5814 5.99961C57.6151 5.97541 57.6557 5.9624 57.6974 5.96243H63.7535C63.7951 5.96243 63.8357 5.9494 63.8694 5.9252C63.9031 5.901 63.9282 5.86688 63.941 5.82772L65.8125 0.134716Z" fill="black"/>
<path d="M84.8125 0.134716C84.8254 0.0955596 84.8504 0.0614355 84.8841 0.037235C84.9178 0.0130344 84.9584 0 85.0001 0C85.0417 0 85.0823 0.0130344 85.116 0.037235C85.1497 0.0614355 85.1748 0.0955596 85.1876 0.134716L87.059 5.82792C87.0719 5.86705 87.097 5.90113 87.1307 5.92529C87.1644 5.94945 87.205 5.96245 87.2466 5.96243H93.3028C93.3444 5.96243 93.385 5.97546 93.4187 5.99965C93.4524 6.02385 93.4775 6.05797 93.4903 6.09712C93.5032 6.13627 93.5032 6.17845 93.4904 6.2176C93.4775 6.25676 93.4524 6.29088 93.4187 6.31508L88.5192 9.83368C88.4855 9.85789 88.4604 9.89201 88.4476 9.93117C88.4347 9.97032 88.4347 10.0125 88.4476 10.0516L90.319 15.7448C90.3318 15.784 90.3318 15.8262 90.319 15.8653C90.3061 15.9044 90.281 15.9385 90.2473 15.9627C90.2137 15.9869 90.1731 16 90.1315 16C90.0898 16 90.0492 15.987 90.0155 15.9628L85.116 12.4443C85.0823 12.4201 85.0417 12.407 85.0001 12.407C84.9584 12.407 84.9178 12.4201 84.8841 12.4443L79.9846 15.9628C79.9509 15.987 79.9103 16 79.8687 16C79.827 16 79.7865 15.987 79.7528 15.9628C79.7191 15.9386 79.694 15.9044 79.6811 15.8653C79.6682 15.8261 79.6682 15.784 79.6811 15.7448L81.5525 10.0516C81.5654 10.0124 81.5654 9.97025 81.5525 9.9311C81.5396 9.89194 81.5145 9.85783 81.4808 9.83364L76.5814 6.31517C76.5477 6.29098 76.5226 6.25685 76.5097 6.21768C76.4968 6.1785 76.4968 6.1363 76.5097 6.09712C76.5225 6.05795 76.5476 6.02381 76.5814 5.99961C76.6151 5.97541 76.6557 5.9624 76.6974 5.96243H82.7535C82.7951 5.96243 82.8357 5.9494 82.8694 5.9252C82.9031 5.901 82.9282 5.86688 82.941 5.82772L84.8125 0.134716Z" fill="black"/>
</svg>
