<svg width="24" height="24" viewBox="0 0 24 24" fill="none" xmlns="http://www.w3.org/2000/svg">
<rect width="24" height="24" rx="12" fill="#E8EFF0" fill-opacity="0.909804"/>
<path d="M15.0002 5.8833C13.8402 5.8833 12.7268 6.4233 12.0002 7.27663C11.2735 6.4233 10.1602 5.8833 9.00016 5.8833C6.94683 5.8833 5.3335 7.49663 5.3335 9.54997C5.3335 12.07 7.60016 14.1233 11.0335 17.2433L12.0002 18.1166L12.9668 17.2366C16.4002 14.1233 18.6668 12.07 18.6668 9.54997C18.6668 7.49663 17.0535 5.8833 15.0002 5.8833ZM12.0668 16.25L12.0002 16.3166L11.9335 16.25C8.76016 13.3766 6.66683 11.4766 6.66683 9.54997C6.66683 8.21663 7.66683 7.21663 9.00016 7.21663C10.0268 7.21663 11.0268 7.87663 11.3802 8.78997H12.6268C12.9735 7.87663 13.9735 7.21663 15.0002 7.21663C16.3335 7.21663 17.3335 8.21663 17.3335 9.54997C17.3335 11.4766 15.2402 13.3766 12.0668 16.25Z" fill="#037783"/>
</svg>
