<svg width="21" height="20" viewBox="0 0 21 20" fill="none" xmlns="http://www.w3.org/2000/svg">
<path d="M5.95 4.16667C6 4.90833 6.125 5.63333 6.325 6.325L5.325 7.325C4.98333 6.325 4.76667 5.26667 4.69167 4.16667H5.95ZM14.1667 14.1833C14.875 14.3833 15.6 14.5083 16.3333 14.5583V15.8C15.2333 15.725 14.175 15.5083 13.1667 15.175L14.1667 14.1833ZM6.75 2.5H3.83333C3.375 2.5 3 2.875 3 3.33333C3 11.1583 9.34167 17.5 17.1667 17.5C17.625 17.5 18 17.125 18 16.6667V13.7583C18 13.3 17.625 12.925 17.1667 12.925C16.1333 12.925 15.125 12.7583 14.1917 12.45C14.1083 12.4167 14.0167 12.4083 13.9333 12.4083C13.7167 12.4083 13.5083 12.4917 13.3417 12.65L11.5083 14.4833C9.15 13.275 7.21667 11.35 6.01667 8.99167L7.85 7.15833C8.08333 6.925 8.15 6.6 8.05833 6.30833C7.75 5.375 7.58333 4.375 7.58333 3.33333C7.58333 2.875 7.20833 2.5 6.75 2.5Z" fill="#037783"/>
</svg>
