<svg width="24" height="24" viewBox="0 0 24 24" fill="none" xmlns="http://www.w3.org/2000/svg">
<rect width="24" height="24" rx="12" fill="#E8EFF0" fill-opacity="0.909804"/>
<path d="M16 14.7467C15.4933 14.7467 15.04 14.9467 14.6933 15.26L9.94 12.4933C9.97333 12.34 10 12.1867 10 12.0267C10 11.8667 9.97333 11.7133 9.94 11.56L14.64 8.81999C15 9.15332 15.4733 9.35999 16 9.35999C17.1067 9.35999 18 8.46665 18 7.35999C18 6.25332 17.1067 5.35999 16 5.35999C14.8933 5.35999 14 6.25332 14 7.35999C14 7.51999 14.0267 7.67332 14.06 7.82665L9.36 10.5667C9 10.2333 8.52667 10.0267 8 10.0267C6.89333 10.0267 6 10.92 6 12.0267C6 13.1333 6.89333 14.0267 8 14.0267C8.52667 14.0267 9 13.82 9.36 13.4867L14.1067 16.26C14.0733 16.4 14.0533 16.5467 14.0533 16.6933C14.0533 17.7667 14.9267 18.64 16 18.64C17.0733 18.64 17.9467 17.7667 17.9467 16.6933C17.9467 15.62 17.0733 14.7467 16 14.7467ZM16 6.69332C16.3667 6.69332 16.6667 6.99332 16.6667 7.35999C16.6667 7.72665 16.3667 8.02665 16 8.02665C15.6333 8.02665 15.3333 7.72665 15.3333 7.35999C15.3333 6.99332 15.6333 6.69332 16 6.69332ZM8 12.6933C7.63333 12.6933 7.33333 12.3933 7.33333 12.0267C7.33333 11.66 7.63333 11.36 8 11.36C8.36667 11.36 8.66667 11.66 8.66667 12.0267C8.66667 12.3933 8.36667 12.6933 8 12.6933ZM16 17.3733C15.6333 17.3733 15.3333 17.0733 15.3333 16.7067C15.3333 16.34 15.6333 16.04 16 16.04C16.3667 16.04 16.6667 16.34 16.6667 16.7067C16.6667 17.0733 16.3667 17.3733 16 17.3733Z" fill="#037783"/>
</svg>
