<svg width="18" height="18" viewBox="0 0 18 18" fill="none" xmlns="http://www.w3.org/2000/svg">
<path d="M8.55163 0.908492C8.73504 0.536869 9.26496 0.53687 9.44837 0.908493L11.5287 5.1237C11.6015 5.27127 11.7423 5.37356 11.9052 5.39722L16.5569 6.07316C16.967 6.13276 17.1308 6.63674 16.834 6.92601L13.468 10.2071C13.3501 10.322 13.2964 10.4875 13.3242 10.6497L14.1188 15.2826C14.1889 15.6911 13.7601 16.0026 13.3933 15.8097L9.23267 13.6223C9.08701 13.5457 8.91299 13.5457 8.76733 13.6223L4.60667 15.8097C4.23985 16.0026 3.81114 15.6911 3.88119 15.2826L4.67581 10.6497C4.70363 10.4875 4.64985 10.322 4.53201 10.2071L1.16597 6.92601C0.869207 6.63674 1.03296 6.13276 1.44307 6.07316L6.09483 5.39722C6.25769 5.37356 6.39847 5.27127 6.4713 5.1237L8.55163 0.908492Z" fill="black"/>
</svg>
